<svg width="54" height="50" viewBox="0 0 54 50" fill="none" xmlns="http://www.w3.org/2000/svg">
<path d="M26.7667 0C26.8951 3.14193e-07 27.0189 0.0510098 27.1125 0.141807C27.206 0.232605 27.2606 0.355755 27.2713 0.484157C27.3086 0.936483 27.3448 1.3888 27.3796 1.84113C27.8173 7.51661 28.0515 13.7625 28.0954 19.5564C28.1037 20.6582 28.9942 21.5517 30.096 21.5609C36.8209 21.617 43.5458 21.8393 50.2706 22.2278C51.144 22.2783 52.0174 22.3316 52.8907 22.3876C53.0203 22.396 53.1446 22.4502 53.2363 22.544C53.3279 22.6378 53.3794 22.7626 53.3794 22.8922C53.3794 23.0218 53.3279 23.1466 53.2363 23.2404C53.1446 23.3342 53.0203 23.3884 52.8907 23.3968C52.0174 23.4528 51.144 23.5061 50.2706 23.5566C48.4691 23.6606 46.6676 23.7527 44.8661 23.833L49.054 25.965C49.1928 26.0357 49.3317 26.1063 49.4705 26.177C49.5798 26.2329 49.6653 26.3349 49.7105 26.4547C49.7555 26.5749 49.7565 26.703 49.711 26.8168C49.6654 26.9306 49.5762 27.0226 49.4607 27.0785C49.3454 27.1341 49.2131 27.1489 49.0954 27.1139C48.9462 27.0692 48.7969 27.0246 48.6477 26.9799L39.5379 24.0355C37.0253 24.1146 34.5128 24.1705 32.0002 24.2031C31.4322 24.2105 31.1771 24.9446 31.6016 25.3221C31.87 25.5609 32.1333 25.8048 32.3917 26.054C32.4061 26.0679 32.4204 26.0818 32.4348 26.0957C32.4983 26.129 32.5583 26.1677 32.6147 26.2111C35.6979 26.6959 38.772 27.2409 41.8369 27.8462L42.1258 27.9314C44.5815 29.1659 47.0178 30.4436 49.4348 31.7642C49.8275 31.9788 50.2197 32.1945 50.6115 32.4114C50.7241 32.4738 50.814 32.574 50.8585 32.6965C50.903 32.819 50.8988 32.9528 50.8462 33.0699C50.7936 33.1869 50.6964 33.279 50.5753 33.3271C50.4542 33.3753 50.3196 33.3747 50.1981 33.332C49.7757 33.1833 49.3539 33.0335 48.9326 32.8825C47.4758 32.3606 46.0252 31.8251 44.5806 31.276C45.6658 33.1231 46.6122 35.0582 47.4198 37.0813C47.4901 37.2574 47.5594 37.4343 47.6276 37.6117C47.6717 37.7271 47.6856 37.8558 47.6537 37.9773C47.6219 38.0988 47.5483 38.2024 47.4457 38.2674C47.3432 38.3324 47.2181 38.3547 47.0946 38.3316C46.9711 38.3085 46.8607 38.241 46.7752 38.1519C46.6438 38.0144 46.5135 37.8763 46.3843 37.7375C44.5748 35.7943 42.3418 32.1955 40.9449 29.991C38.6819 29.7416 36.4237 29.4603 34.1704 29.147C34.9651 30.8078 35.7598 32.4687 36.5545 34.1294C38.2789 35.3077 40.0034 36.4858 41.7279 37.6642L41.8342 37.7245L41.9425 37.8708C42.6661 39.0412 43.3894 40.2116 44.1127 41.382C44.2897 41.6683 44.4667 41.9547 44.6438 42.241C44.7113 42.3503 44.7323 42.4847 44.705 42.6129C44.6774 42.7411 44.6037 42.8527 44.4974 42.9247C44.3911 42.9967 44.2602 43.0238 44.1309 43.0018C44.0017 42.9796 43.8847 42.9102 43.8082 42.8069C43.608 42.5363 43.4078 42.2656 43.2075 41.995C42.4253 40.9376 41.6432 39.8802 40.861 38.8229C39.7691 38.2033 38.6771 37.5838 37.5852 36.9643C37.9029 39.848 38.2206 42.7317 38.5383 45.6154C38.5584 45.7974 38.5784 45.9794 38.5985 46.1614C38.612 46.285 38.5734 46.4132 38.4968 46.5168C38.4199 46.6205 38.3112 46.6911 38.1892 46.7141C38.0672 46.7371 37.9403 46.7109 37.8309 46.6424C37.7218 46.5738 37.6393 46.4684 37.6068 46.3484C37.5592 46.1716 37.5116 45.9947 37.464 45.8179L34.7655 35.0348C33.5505 32.9594 32.3358 30.8839 31.121 28.8086C31.0126 28.6235 30.9043 28.4384 30.7959 28.2533C30.705 28.1659 30.6142 28.0784 30.5234 27.9909C30.1047 27.587 29.6993 27.1695 29.3071 26.7382C28.8892 26.2786 28.0135 26.6486 28.0527 27.2686C28.093 27.9046 28.1122 28.5393 28.1122 29.161C28.1122 31.2688 28.0851 33.3765 28.031 35.4843C28.0269 35.6456 28.0877 35.8019 28.2 35.9178C29.0921 36.8384 29.9842 37.759 30.8763 38.6798L30.9555 38.738L31.0946 38.9564C31.7266 40.4557 32.3584 41.955 32.9902 43.4542C33.0551 43.6081 33.1199 43.7619 33.1848 43.9158C33.2326 44.0296 33.2322 44.163 33.1889 44.2839C33.1454 44.405 33.0625 44.5036 32.9533 44.5609C32.8441 44.6181 32.7159 44.6302 32.5916 44.5972C32.4675 44.564 32.3575 44.4885 32.291 44.3844C32.2014 44.2436 32.1117 44.1028 32.022 43.9619C31.1945 42.6624 30.3671 41.3627 29.5397 40.0632C29 39.6671 28.4603 39.2712 27.9206 38.8752C27.7986 41.9697 27.6183 45.0643 27.3796 48.1589C27.3448 48.6112 27.3086 49.0635 27.2713 49.5158C27.2606 49.6442 27.206 49.7674 27.1125 49.8582C27.0189 49.949 26.8951 50 26.7667 50C26.6383 50 26.5144 49.949 26.4209 49.8582C26.3273 49.7674 26.2728 49.6442 26.2621 49.5158C26.2247 49.0635 26.1886 48.6112 26.1537 48.1589C25.9151 45.0643 25.7348 41.9697 25.6127 38.8751C25.073 39.2711 24.5334 39.6671 23.9937 40.0632C23.1663 41.3627 22.3389 42.6623 21.5113 43.9619C21.4217 44.1028 21.332 44.2436 21.2423 44.3844C21.1759 44.4885 21.0659 44.564 20.9418 44.5972C20.8752 44.6149 20.8075 44.6196 20.7422 44.6114C20.6418 44.6237 20.5417 44.6069 20.454 44.5609C20.3448 44.5036 20.2619 44.405 20.2184 44.2839C20.1751 44.163 20.1747 44.0296 20.2225 43.9158C20.2874 43.7619 20.3522 43.6081 20.4171 43.4542C21.049 41.955 21.6807 40.4557 22.3127 38.9564L22.4518 38.738L22.5311 38.6798C23.4318 37.75 24.4189 36.7314 25.3301 35.791C25.4423 35.6752 25.5032 35.5191 25.4991 35.3578C25.4472 33.2922 25.4212 31.2266 25.4212 29.161C25.4212 28.5492 25.4424 27.9249 25.4842 27.2991C25.5258 26.6772 24.6136 26.2798 24.1768 26.7243C23.7578 27.1507 23.325 27.5654 22.8839 27.9909C22.7932 28.0784 22.7023 28.1658 22.6114 28.2532C22.5031 28.4384 22.3947 28.6235 22.2863 28.8086C21.0715 30.8839 19.8568 32.9594 18.6418 35.0348L15.9433 45.8179C15.8957 45.9947 15.8481 46.1716 15.8005 46.3484C15.7681 46.4684 15.6855 46.5738 15.5764 46.6424C15.4671 46.7109 15.3401 46.7371 15.2181 46.7141C15.0961 46.6911 14.9874 46.6205 14.9105 46.5168C14.8339 46.4132 14.7954 46.285 14.8089 46.1614C14.8289 45.9794 14.849 45.7974 14.869 45.6154C15.1867 42.7317 15.5044 39.848 15.8221 36.9643C14.7302 37.5838 13.6382 38.2033 12.5464 38.8229C11.7641 39.8802 10.982 40.9376 10.1998 41.995C9.99958 42.2656 9.79934 42.5363 9.5991 42.8069C9.52263 42.9102 9.40565 42.9796 9.27648 43.0018C9.14716 43.0238 9.01621 42.9967 8.9099 42.9247C8.8036 42.8527 8.72989 42.7411 8.70237 42.6129C8.675 42.4847 8.69608 42.3503 8.76358 42.241C8.94059 41.9547 9.11759 41.6683 9.29459 41.382C10.018 40.2116 10.7413 39.0412 11.4648 37.8708L11.5731 37.7245L11.6794 37.6642C13.4039 36.4858 15.1284 35.3077 16.8528 34.1294C17.6475 32.4687 18.4422 30.8078 19.2369 29.147C16.9836 29.4603 14.7255 29.7416 12.4624 29.991C11.0655 32.1955 8.83252 35.7943 7.02305 37.7375C6.89381 37.8763 6.76351 38.0144 6.63216 38.1519C6.54665 38.241 6.43624 38.3085 6.3127 38.3316C6.18925 38.3547 6.06412 38.3324 5.9616 38.2674C5.85908 38.2024 5.78543 38.0988 5.75362 37.9773C5.72173 37.8558 5.73565 37.7271 5.77974 37.6117C5.84795 37.4343 5.9172 37.2574 5.98751 37.0813C6.79511 35.0582 7.74152 33.1231 8.82675 31.276C7.38217 31.8251 5.93149 32.3606 4.4747 32.8825C4.05339 33.0335 3.63157 33.1833 3.20924 33.332C3.08773 33.3747 2.95308 33.3753 2.83196 33.3271C2.71088 33.279 2.61369 33.1869 2.56112 33.0699C2.50856 32.9528 2.50434 32.819 2.54882 32.6965C2.59327 32.574 2.68322 32.4738 2.79585 32.4114C3.18756 32.1945 3.57979 31.9788 3.97252 31.7642C6.38952 30.4436 8.82586 29.1659 11.2815 27.9314L11.5704 27.8462C14.6353 27.2409 17.7094 26.6959 20.7927 26.2111C20.849 26.1677 20.909 26.1291 20.9724 26.0957C20.9868 26.0818 21.0012 26.0679 21.0156 26.054C21.2738 25.8049 21.5371 25.5611 21.8053 25.3225C22.2298 24.9449 21.9747 24.2108 21.4067 24.2035C18.894 24.171 16.3814 24.1152 13.8687 24.0363L4.75971 26.9799C4.61046 27.0246 4.4612 27.0692 4.31195 27.1139C4.19427 27.1489 4.06199 27.1341 3.94663 27.0785C3.83112 27.0226 3.74197 26.9306 3.69639 26.8168C3.65082 26.703 3.65186 26.5749 3.69689 26.4547C3.74206 26.3349 3.82753 26.2329 3.93688 26.177C4.07571 26.1063 4.21456 26.0357 4.35339 25.965L8.53904 23.8341C6.72893 23.7536 4.91885 23.6611 3.10874 23.5566C2.23538 23.5061 1.36202 23.4528 0.488651 23.3968C0.359055 23.3884 0.234759 23.3342 0.143121 23.2404C0.051488 23.1466 0 23.0218 0 22.8922C0 22.7626 0.051488 22.6378 0.143121 22.544C0.234759 22.4502 0.359055 22.396 0.488651 22.3876C1.36202 22.3316 2.23538 22.2783 3.10874 22.2278C9.88469 21.8364 16.6606 21.6137 23.4366 21.5597C24.5387 21.5509 25.4296 20.6573 25.438 19.5552C25.4819 13.7616 25.716 7.51636 26.1537 1.84113C26.1886 1.3888 26.2247 0.936483 26.2621 0.484157C26.2728 0.355755 26.3273 0.232605 26.4209 0.141807C26.5144 0.0510099 26.6383 5.61238e-09 26.7667 0Z" fill="#532807"/>
</svg>
